<svg xmlns="http://www.w3.org/2000/svg" width="25" height="24" viewBox="0 0 25 24" fill="none">
    <path fill="#000" fill-rule="evenodd" d="M7.21 22h1.7l.43-1.37h2.26l.43 1.37h1.7l-2.2-6.55H9.42L7.22 22Zm4.01-2.58-.72-2.32h-.05l-.73 2.32h1.5Z" clip-rule="evenodd"/>
    <path fill="#000" d="M14.44 22v-6.55h1.58v5.27h2.72V22h-4.3Zm4.11-5.26v-1.29h5.53v1.29H22.1V22h-1.56v-5.26h-2Z"/>
    <path fill="#000" fill-rule="evenodd" d="M21 3a1 1 0 0 1 1 1v9h-2V5H4v14l3.98-4-2.01 6H2.99A1 1 0 0 1 2 20V4a1 1 0 0 1 1-1h18Zm-4.87 10.95L14 11.83l-2.13 2.12H9.04L14 9l3 3v1.95h-.87ZM8 7a2 2 0 1 1 0 4 2 2 0 0 1 0-4Z" clip-rule="evenodd"/>
</svg>